<?xml version="1.0" encoding="UTF-8" standalone="no"?>
<svg width="512" height="512" viewBox="0 0 512 512" fill="none" xmlns="http://www.w3.org/2000/svg">
  <!-- Background circle -->
  <circle cx="256" cy="256" r="240" fill="#6366F1" />
  
  <!-- Camera lens/aperture design -->
  <circle cx="256" cy="256" r="200" fill="#4F46E5" />
  <circle cx="256" cy="256" r="160" fill="#ffffff" stroke="#4F46E5" stroke-width="8" />
  
  <!-- Aperture blades -->
  <path d="M256 96L296 176H216L256 96Z" fill="#4F46E5" />
  <path d="M368 176L328 256L256 216L368 176Z" fill="#4F46E5" />
  <path d="M368 336L288 296L328 216L368 336Z" fill="#4F46E5" />
  <path d="M256 416L216 336H296L256 416Z" fill="#4F46E5" />
  <path d="M144 336L184 256L256 296L144 336Z" fill="#4F46E5" />
  <path d="M144 176L224 216L184 296L144 176Z" fill="#4F46E5" />
  
  <!-- Center circle -->
  <circle cx="256" cy="256" r="64" fill="#10B981" />
  
  <!-- Leaf symbol for nutrition -->
  <path d="M280 224C280 224 312 240 312 288C312 336 264 352 264 352C264 352 280 320 280 288C280 256 256 232 224 232C192 232 192 264 192 264C192 264 208 216 256 216C304 216 280 224 280 224Z" fill="white" />
</svg>